<?xml version="1.0" encoding="UTF-8"?>
<svg version="1.1" xmlns="http://www.w3.org/2000/svg" width="46" height="47">
<path d="M0 0 C15.18 0 30.36 0 46 0 C46 15.51 46 31.02 46 47 C30.82 47 15.64 47 0 47 C0 31.49 0 15.98 0 0 Z " fill="#F9FDFB" transform="translate(0,0)"/>
<path d="M0 0 C1.82011771 1.64195804 3.26459717 3.1932689 4.4765625 5.33203125 C4.4765625 6.32203125 4.4765625 7.31203125 4.4765625 8.33203125 C5.1365625 8.33203125 5.7965625 8.33203125 6.4765625 8.33203125 C7.25751935 16.2977911 7.25751935 16.2977911 4.1640625 20.39453125 C1.4765625 22.33203125 1.4765625 22.33203125 -1.5234375 22.33203125 C-1.5234375 23.98203125 -1.5234375 25.63203125 -1.5234375 27.33203125 C-8.1234375 27.33203125 -14.7234375 27.33203125 -21.5234375 27.33203125 C-21.5234375 25.68203125 -21.5234375 24.03203125 -21.5234375 22.33203125 C-22.2865625 22.24953125 -23.0496875 22.16703125 -23.8359375 22.08203125 C-26.5234375 21.33203125 -26.5234375 21.33203125 -28.3359375 19.83203125 C-30.12425167 16.0671593 -29.75990304 12.4307672 -29.5234375 8.33203125 C-28.8634375 8.33203125 -28.2034375 8.33203125 -27.5234375 8.33203125 C-27.4409375 7.77515625 -27.3584375 7.21828125 -27.2734375 6.64453125 C-25.95146889 2.56846138 -23.49329019 0.01092814 -20.0234375 -2.41796875 C-12.78486737 -6.03725381 -6.23964846 -4.94328314 0 0 Z " fill="#4FB42F" transform="translate(34.5234375,12.66796875)"/>
<path d="M0 0 C10.56 0 21.12 0 32 0 C32 6 32 6 30.8671875 8.34179688 C28.26915613 10.6490444 26.56928343 10.51651285 23.125 10.53125 C21.40023438 10.53898437 21.40023438 10.53898437 19.640625 10.546875 C18.43921875 10.53140625 17.2378125 10.5159375 16 10.5 C14.79859375 10.51546875 13.5971875 10.5309375 12.359375 10.546875 C10.63460938 10.53914063 10.63460938 10.53914063 8.875 10.53125 C7.29332031 10.52448242 7.29332031 10.52448242 5.6796875 10.51757812 C3 10 3 10 1.1328125 8.34179688 C0 6 0 6 0 0 Z " fill="#F7FCF8" transform="translate(7,23)"/>
<path d="M0 0 C0.33 0.99 0.66 1.98 1 3 C3.01508358 3.73323796 3.01508358 3.73323796 5 4 C5 4.99 5 5.98 5 7 C5.99 7.33 6.98 7.66 8 8 C8 8.66 8 9.32 8 10 C-1.24 10 -10.48 10 -20 10 C-19.67 9.01 -19.34 8.02 -19 7 C-18.34 7 -17.68 7 -17 7 C-16.67 5.68 -16.34 4.36 -16 3 C-15.01 3 -14.02 3 -13 3 C-12.67 2.01 -12.34 1.02 -12 0 C-7.74433453 -1.16063604 -4.3164922 -0.76173392 0 0 Z " fill="#E9F6E7" transform="translate(29,11)"/>
<path d="M0 0 C3 1 3 1 5 4 C9.27396476 4.67295326 13.61690108 4.46282051 17.9375 4.4375 C19.14341797 4.45748047 20.34933594 4.47746094 21.59179688 4.49804688 C23.32333008 4.49708008 23.32333008 4.49708008 25.08984375 4.49609375 C26.68107056 4.49887329 26.68107056 4.49887329 28.30444336 4.50170898 C31.14093888 4.26501474 31.14093888 4.26501474 32.74438477 1.96899414 C33.36591431 0.99434204 33.36591431 0.99434204 34 0 C34.66 0 35.32 0 36 0 C34.71700242 2.86207152 33.469364 5.0245088 31 7 C30.01 7 29.02 7 28 7 C28 8.65 28 10.3 28 12 C21.4 12 14.8 12 8 12 C8 10.35 8 8.7 8 7 C7.236875 6.9175 6.47375 6.835 5.6875 6.75 C2.45284809 5.84730645 1.64900735 4.86406539 0 2 C0 1.34 0 0.68 0 0 Z " fill="#59B93B" transform="translate(5,28)"/>
<path d="M0 0 C0.66 0 1.32 0 2 0 C0.71700242 2.86207152 -0.530636 5.0245088 -3 7 C-3.99 7 -4.98 7 -6 7 C-6 8.65 -6 10.3 -6 12 C-6.66 11.34 -7.32 10.68 -8 10 C-10.74485593 9.85492305 -13.38480543 9.81347577 -16.125 9.875 C-17.25615234 9.88853516 -17.25615234 9.88853516 -18.41015625 9.90234375 C-20.27357254 9.9259313 -22.13682593 9.96180281 -24 10 C-24 9.34 -24 8.68 -24 8 C-18.72 8 -13.44 8 -8 8 C-8 7.34 -8 6.68 -8 6 C-14.27 6 -20.54 6 -27 6 C-27 5.67 -27 5.34 -27 5 C-26.2886792 4.9906543 -25.5773584 4.98130859 -24.84448242 4.97167969 C-21.6247794 4.91803112 -18.40653817 4.83437365 -15.1875 4.75 C-13.50817383 4.72873047 -13.50817383 4.72873047 -11.79492188 4.70703125 C-10.72177734 4.67480469 -9.64863281 4.64257812 -8.54296875 4.609375 C-7.0583313 4.5779541 -7.0583313 4.5779541 -5.54370117 4.54589844 C-2.33090191 3.85640625 -1.74581436 2.6788933 0 0 Z " fill="#A2D893" transform="translate(39,28)"/>
<path d="M0 0 C3.25729331 2.18279199 5.7260897 4.10405036 7.0078125 7.94921875 C6.0178125 8.44421875 6.0178125 8.44421875 5.0078125 8.94921875 C3.0078125 7.94921875 3.0078125 7.94921875 2.0078125 4.94921875 C1.0178125 4.61921875 0.0278125 4.28921875 -0.9921875 3.94921875 C-1.3221875 3.28921875 -1.6521875 2.62921875 -1.9921875 1.94921875 C-6.22649148 1.0535006 -9.83125767 0.60303557 -13.9921875 1.94921875 C-14.3221875 2.60921875 -14.6521875 3.26921875 -14.9921875 3.94921875 C-15.9821875 4.27921875 -16.9721875 4.60921875 -17.9921875 4.94921875 C-18.3221875 5.93921875 -18.6521875 6.92921875 -18.9921875 7.94921875 C-19.9821875 8.27921875 -20.9721875 8.60921875 -21.9921875 8.94921875 C-21.9921875 5.94921875 -21.9921875 5.94921875 -19.9296875 3.44921875 C-13.85068881 -1.72439716 -7.32595616 -3.86408276 0 0 Z " fill="#5BB93D" transform="translate(30.9921875,10.05078125)"/>
<path d="M0 0 C2.71435596 0.93305986 3.78043163 1.62673377 5.25 4.125 C5.4975 4.74375 5.745 5.3625 6 6 C5.01 6.495 5.01 6.495 4 7 C2 6 2 6 1 3 C0.01 2.34 -0.98 1.68 -2 1 C-1.34 0.67 -0.68 0.34 0 0 Z " fill="#62BC45" transform="translate(32,12)"/>
</svg>
