<?xml version="1.0" encoding="iso-8859-1"?>
<!-- Uploaded to: SVG Repo, www.svgrepo.com, Generator: SVG Repo Mixer Tools -->
<svg height="800px" width="800px" version="1.1" id="Layer_1" xmlns="http://www.w3.org/2000/svg" xmlns:xlink="http://www.w3.org/1999/xlink" 
	 viewBox="0 0 512.001 512.001" xml:space="preserve">
<path style="fill:#CFF09E;" d="M255.999,30.785c-40.957,0-76.963,21.108-97.8,53.021c39.39,7.758,69.104,42.469,69.104,84.135
	c0,30.99-16.444,58.128-41.074,73.198c19.464,14.53,43.611,23.136,69.77,23.136c64.477,0,116.745-52.269,116.745-116.745
	S320.475,30.785,255.999,30.785z"/>
<path style="fill:#507C5C;" d="M470.302,161.906c-3.13-52.353-46.716-93.985-99.84-93.985c-3.363,0-6.738,0.18-10.103,0.522
	C336.414,36.923,298.545,16.53,256,16.53c-41.289,0-79.653,19.242-104.385,51.898c-3.316-0.334-6.677-0.507-10.079-0.507
	c-55.151,0-100.021,44.869-100.021,100.021c0,0.519,0.014,1.034,0.031,1.548l0.014,0.475c0.161,7.87,6.673,14.133,14.545,13.96
	c7.872-0.161,14.121-6.673,13.96-14.545l-0.026-0.862c-0.007-0.191-0.016-0.383-0.016-0.576c0-39.43,32.079-71.51,71.51-71.51
	c4.811,0,9.51,0.485,14.057,1.396c0.527,0.105,1.048,0.23,1.571,0.346c0.606,0.135,1.212,0.268,1.812,0.419
	c0.422,0.105,0.84,0.224,1.259,0.336c0.711,0.192,1.421,0.391,2.124,0.604c0.321,0.097,0.639,0.201,0.958,0.302
	c0.82,0.262,1.635,0.537,2.443,0.828c0.207,0.074,0.413,0.15,0.62,0.227c0.957,0.355,1.905,0.727,2.843,1.122
	c0.063,0.026,0.125,0.051,0.188,0.078c7.444,3.163,14.245,7.551,20.15,12.911c0.021,0.019,0.043,0.038,0.063,0.057
	c0.801,0.73,1.585,1.478,2.354,2.244c0.051,0.051,0.104,0.103,0.155,0.154c0.748,0.75,1.477,1.517,2.191,2.298
	c0.053,0.058,0.108,0.114,0.161,0.172c1.484,1.635,2.892,3.341,4.221,5.109c0.294,0.391,0.572,0.793,0.857,1.189
	c0.326,0.452,0.654,0.904,0.971,1.363c0.366,0.535,0.718,1.079,1.071,1.625c0.212,0.328,0.426,0.656,0.633,0.988
	c0.381,0.613,0.751,1.232,1.115,1.856c0.155,0.267,0.309,0.535,0.462,0.803c0.383,0.679,0.757,1.363,1.118,2.056
	c0.107,0.205,0.212,0.412,0.318,0.619c0.385,0.754,0.761,1.512,1.119,2.279c0.05,0.105,0.096,0.212,0.144,0.319
	c1.624,3.528,2.967,7.202,4.004,10.992c0.029,0.104,0.061,0.208,0.088,0.312c0.204,0.757,0.385,1.522,0.564,2.288
	c0.076,0.326,0.155,0.65,0.227,0.978c0.147,0.673,0.279,1.35,0.408,2.027c0.083,0.442,0.163,0.884,0.238,1.327
	c0.103,0.61,0.2,1.225,0.287,1.839c0.077,0.542,0.144,1.086,0.208,1.632c0.064,0.545,0.13,1.089,0.181,1.637
	c0.064,0.679,0.111,1.363,0.157,2.047c0.029,0.435,0.066,0.867,0.087,1.303c0.054,1.135,0.087,2.274,0.087,3.421
	c0,0.001,0,0.003,0,0.006c0,1.572-0.051,3.135-0.15,4.687c-0.086,1.337-0.225,2.664-0.382,3.984
	c-0.024,0.207-0.034,0.416-0.06,0.622c-2.336,18.177-11.495,34.571-25.741,46.132c-0.111,0.09-0.214,0.187-0.325,0.275
	c-0.995,0.797-2.027,1.558-3.069,2.307c-0.23,0.165-0.448,0.342-0.68,0.505c-0.957,0.67-1.949,1.303-2.944,1.932
	c-0.442,0.279-0.864,0.579-1.313,0.85c-4.369,2.634-6.998,7.401-6.894,12.502l0.026,0.864c0.007,0.191,0.016,0.382,0.016,0.574
	c0,39.432-32.079,71.51-71.51,71.51c-39.43,0-71.51-32.079-71.51-71.51c0-7.873-6.382-14.255-14.255-14.255S0,235.301,0,243.174
	c0,55.151,44.869,100.021,100.021,100.021c7.243,0,14.301-0.8,21.111-2.269L203.72,385.8v95.417c0,7.873,6.382,14.255,14.255,14.255
	h76.051c7.873,0,14.255-6.382,14.255-14.255V385.8l82.573-44.866c6.871,1.477,13.943,2.259,21.126,2.259
	c55.151,0,100.021-44.87,100.021-100.021C511.999,210.503,496.556,180.681,470.302,161.906z M182.119,76.511
	c19.152-19.969,45.646-31.47,73.88-31.47c56.514,0,102.49,45.976,102.49,102.49s-45.976,102.49-102.49,102.49
	c-15.745,0-30.941-3.508-44.783-10.257c13.242-12.764,22.59-28.827,27.158-46.579c0.019-0.07,0.036-0.14,0.054-0.21
	c0.398-1.561,0.763-3.135,1.085-4.721c0.014-0.067,0.026-0.135,0.04-0.202c0.627-3.112,1.109-6.27,1.443-9.464
	c0.024-0.237,0.051-0.473,0.074-0.711c0.145-1.488,0.258-2.984,0.338-4.488c0.014-0.258,0.023-0.516,0.034-0.774
	c0.07-1.551,0.117-3.106,0.117-4.671v-0.001l0,0l0,0v-0.001c0-1.528-0.047-3.046-0.115-4.56c-0.021-0.485-0.053-0.968-0.081-1.45
	c-0.064-1.055-0.144-2.107-0.241-3.153c-0.048-0.525-0.091-1.051-0.147-1.574c-0.148-1.366-0.316-2.726-0.52-4.077
	c-0.098-0.664-0.222-1.319-0.334-1.979c-0.127-0.738-0.254-1.477-0.396-2.211c-0.155-0.805-0.322-1.607-0.498-2.405
	c-0.115-0.525-0.239-1.045-0.362-1.567c-0.721-3.058-1.584-6.06-2.58-9.002c-0.08-0.234-0.157-0.469-0.238-0.703
	c-0.356-1.028-0.727-2.047-1.115-3.059c-0.029-0.076-0.06-0.151-0.09-0.227c-1.234-3.19-2.627-6.298-4.17-9.322
	c-0.101-0.198-0.202-0.396-0.305-0.594c-0.493-0.951-0.996-1.896-1.52-2.83c-0.043-0.076-0.088-0.151-0.131-0.227
	c-0.985-1.749-2.024-3.463-3.111-5.143c-0.202-0.314-0.398-0.63-0.603-0.941c-0.46-0.696-0.932-1.381-1.408-2.064
	c-0.359-0.516-0.724-1.028-1.093-1.537c-0.423-0.583-0.844-1.166-1.279-1.739c-0.787-1.038-1.588-2.063-2.413-3.069
	c-0.205-0.249-0.419-0.49-0.627-0.737c-0.751-0.898-1.517-1.782-2.299-2.653c-0.255-0.284-0.515-0.566-0.773-0.847
	c-0.862-0.939-1.742-1.863-2.64-2.77c-0.115-0.115-0.227-0.234-0.342-0.349C203.556,88.586,193.423,81.535,182.119,76.511z
	 M197.653,264.842c13.792,6.89,28.649,11.247,44.09,12.905v85.32h-20.147l-66.769-36.28
	C176.239,312.706,191.934,290.633,197.653,264.842z M279.768,466.961h-47.54v-75.384h47.54V466.961z M411.977,314.684
	c-21.474,0-41.621-9.527-55.275-26.139c-4.999-6.081-13.983-6.961-20.064-1.96c-6.081,4.999-6.959,13.983-1.96,20.064
	c6.518,7.929,14.113,14.672,22.461,20.156l-66.736,36.261h-20.147v-85.315c65.553-7.128,116.745-62.805,116.745-130.221
	c0-18.007-3.654-35.176-10.255-50.807c36.496,3.195,65.227,33.906,65.227,71.218c0,0.192-0.009,0.383-0.016,0.574l-0.026,0.864
	c-0.104,5.101,2.525,9.868,6.894,12.502c21.705,13.081,34.663,35.995,34.663,61.294
	C483.488,282.604,451.409,314.684,411.977,314.684z"/>
</svg>